<svg xmlns="http://www.w3.org/2000/svg" xmlns:xlink="http://www.w3.org/1999/xlink" width="2000" zoomAndPan="magnify" viewBox="0 0 1500 1499.999933" height="2000" preserveAspectRatio="xMidYMid meet" version="1.0"><defs><clipPath id="652657be6f"><path d="M 55 43 L 1454.238281 43 L 1454.238281 1408 L 55 1408 Z M 55 43 " clip-rule="nonzero"/></clipPath></defs><g clip-path="url(#652657be6f)"><path fill="#09732f" d="M 611.660156 1387.617188 C 594.113281 1383.398438 583.296875 1365.71875 587.582031 1348.171875 C 591.804688 1330.628906 609.484375 1319.808594 627.027344 1324.097656 C 650.179688 1329.703125 674.324219 1334.058594 699.324219 1337.027344 C 723.269531 1339.863281 747.871094 1341.378906 773.003906 1341.378906 C 943.1875 1341.378906 1097.273438 1272.382812 1208.816406 1160.839844 C 1320.359375 1049.296875 1389.289062 895.273438 1389.289062 725.027344 C 1389.289062 554.84375 1320.292969 400.753906 1208.816406 289.210938 C 1097.273438 177.671875 943.1875 108.671875 773.003906 108.671875 C 602.820312 108.671875 448.730469 177.671875 337.191406 289.210938 C 225.648438 400.753906 156.714844 554.84375 156.714844 725.027344 C 156.714844 725.949219 156.652344 726.875 156.585938 727.796875 L 156.652344 735.25 C 156.914062 753.324219 142.402344 768.101562 124.394531 768.296875 C 106.320312 768.496094 91.546875 754.050781 91.347656 736.042969 L 91.28125 728.125 C 91.148438 727.136719 91.148438 726.082031 91.148438 725.09375 C 91.148438 536.769531 167.46875 366.324219 290.882812 242.90625 C 414.300781 119.492188 584.8125 43.171875 773.070312 43.171875 C 961.328125 43.171875 1131.839844 119.492188 1255.253906 242.90625 C 1378.671875 366.324219 1454.988281 536.769531 1454.988281 725.09375 C 1454.988281 913.414062 1378.671875 1083.863281 1255.253906 1207.277344 C 1131.839844 1330.691406 961.328125 1407.011719 773.070312 1407.011719 C 745.695312 1407.011719 718.519531 1405.363281 691.671875 1402.195312 C 664.890625 1399.03125 638.242188 1394.148438 611.726562 1387.683594 Z M 215.488281 1372.710938 C 197.347656 1372.710938 182.640625 1358 182.640625 1339.863281 C 182.640625 1321.789062 197.347656 1307.078125 215.488281 1307.078125 L 470.5 1307.078125 C 488.574219 1307.078125 503.285156 1321.789062 503.285156 1339.863281 C 503.285156 1358 488.574219 1372.710938 470.5 1372.710938 Z M 151.703125 1162.355469 C 133.5625 1162.355469 118.855469 1147.648438 118.855469 1129.574219 C 118.855469 1111.433594 133.5625 1096.722656 151.703125 1096.722656 L 406.714844 1096.722656 C 424.789062 1096.722656 439.496094 1111.433594 439.496094 1129.574219 C 439.496094 1147.648438 424.789062 1162.355469 406.714844 1162.355469 Z M 87.917969 952.003906 C 69.777344 952.003906 55.070312 937.292969 55.070312 919.21875 C 55.070312 901.078125 69.777344 886.371094 87.917969 886.371094 L 342.929688 886.371094 C 361.003906 886.371094 375.710938 901.078125 375.710938 919.21875 C 375.710938 937.292969 361.003906 952.003906 342.929688 952.003906 Z M 740.089844 381.230469 C 740.089844 363.15625 754.796875 348.445312 772.9375 348.445312 C 791.011719 348.445312 805.722656 363.15625 805.722656 381.230469 L 805.722656 626.148438 C 805.722656 651.808594 811.921875 675.488281 823.597656 695.738281 C 835.402344 716.121094 852.753906 733.46875 874.785156 746.199219 L 1056.445312 851.082031 C 1072.078125 860.050781 1077.484375 880.039062 1068.515625 895.671875 C 1059.542969 911.304688 1039.558594 916.714844 1023.925781 907.675781 L 842.265625 802.796875 C 809.875 784.128906 784.347656 758.667969 767 728.523438 C 749.519531 698.179688 740.15625 663.351562 740.15625 626.148438 L 740.15625 381.230469 Z M 740.089844 381.230469 " fill-opacity="1" fill-rule="nonzero"/></g></svg>