<svg xmlns="http://www.w3.org/2000/svg" xmlns:xlink="http://www.w3.org/1999/xlink" width="2000" zoomAndPan="magnify" viewBox="0 0 1500 1499.999933" height="2000" preserveAspectRatio="xMidYMid meet" version="1.0"><defs><clipPath id="1a52a514ac"><path d="M 732 952 L 1300.5 952 L 1300.5 1408.472656 L 732 1408.472656 Z M 732 952 " clip-rule="nonzero"/></clipPath><clipPath id="edace4f41b"><path d="M 199.5 952 L 769 952 L 769 1408.472656 L 199.5 1408.472656 Z M 199.5 952 " clip-rule="nonzero"/></clipPath></defs><path fill="#09732f" d="M 750.152344 1112.140625 C 743.230469 1112.140625 736.609375 1107.925781 733.601562 1101.308594 C 729.6875 1092.28125 733.902344 1081.449219 742.929688 1077.535156 C 822.667969 1042.933594 886.460938 986.0625 899.097656 938.519531 L 899.097656 883.453125 C 899.097656 873.523438 907.222656 865.398438 917.152344 865.398438 C 927.082031 865.398438 935.207031 873.523438 935.207031 883.453125 L 935.207031 940.625 C 935.207031 942.128906 934.902344 943.332031 934.601562 944.839844 C 920.160156 1005.019531 850.652344 1070.011719 757.070312 1110.636719 C 754.964844 1111.539062 752.558594 1112.140625 750.152344 1112.140625 Z M 750.152344 1112.140625 " fill-opacity="1" fill-rule="nonzero"/><path fill="#09732f" d="M 892.777344 1197.292969 C 889.167969 1197.292969 885.554688 1196.089844 882.246094 1193.984375 L 753.160156 1102.511719 C 745.035156 1096.792969 743.230469 1085.359375 748.945312 1077.234375 C 754.664062 1069.109375 766.097656 1067.304688 774.222656 1073.023438 L 890.070312 1155.167969 C 920.761719 1119.359375 943.628906 1079.339844 958.675781 1035.710938 C 963.789062 1020.664062 968.003906 1005.019531 971.3125 989.371094 C 971.613281 987.566406 971.011719 985.761719 969.507812 984.859375 L 907.222656 942.128906 C 899.097656 936.414062 896.992188 925.28125 902.707031 917.15625 C 908.425781 909.03125 919.558594 906.925781 927.683594 912.640625 L 989.96875 955.371094 C 1003.511719 964.699219 1010.128906 980.945312 1006.820312 996.894531 C 1003.207031 1014.046875 998.695312 1031.195312 992.976562 1047.746094 C 974.625 1100.707031 945.738281 1149.152344 906.320312 1191.578125 C 902.707031 1195.1875 897.59375 1197.292969 892.777344 1197.292969 Z M 892.777344 1197.292969 " fill-opacity="1" fill-rule="nonzero"/><g clip-path="url(#1a52a514ac)"><path fill="#09732f" d="M 750.152344 1408.226562 C 740.222656 1408.226562 732.097656 1400.101562 732.097656 1390.171875 C 732.097656 1380.242188 740.222656 1372.117188 750.152344 1372.117188 C 1110.328125 1372.117188 1178.9375 1341.726562 1219.859375 1323.671875 C 1225.875 1320.964844 1231.59375 1318.558594 1237.914062 1316.152344 C 1268.304688 1305.019531 1273.71875 1226.78125 1249.046875 1155.769531 C 1225.875 1088.96875 1144.332031 1054.066406 1090.167969 1030.894531 C 1029.386719 1004.71875 974.625 987.867188 974.023438 987.566406 C 964.394531 984.558594 959.277344 974.628906 961.984375 965 C 964.996094 955.371094 974.925781 950.253906 984.554688 952.960938 C 986.960938 953.5625 1041.722656 970.714844 1104.3125 997.496094 C 1164.191406 1023.074219 1254.460938 1061.890625 1283.046875 1143.734375 C 1296.589844 1182.851562 1302.90625 1226.785156 1299.898438 1263.492188 C 1296.289062 1308.929688 1278.535156 1339.621094 1250.550781 1349.851562 C 1245.433594 1351.65625 1240.621094 1354.066406 1234.601562 1356.472656 C 1188.261719 1377.234375 1117.851562 1408.226562 750.152344 1408.226562 Z M 750.152344 1408.226562 " fill-opacity="1" fill-rule="nonzero"/></g><path fill="#09732f" d="M 750.152344 945.140625 C 740.222656 945.140625 732.097656 937.015625 732.097656 927.085938 C 732.097656 917.15625 740.222656 909.03125 750.152344 909.03125 C 863.890625 909.03125 938.214844 851.859375 977.632812 734.207031 C 1041.121094 544.335938 1040.21875 407.425781 974.625 315.953125 C 898.496094 209.734375 752.257812 212.742188 750.753906 212.742188 C 740.824219 213.042969 732.398438 205.222656 732.097656 195.292969 C 731.796875 185.363281 739.617188 176.9375 749.546875 176.636719 C 756.167969 176.335938 916.550781 172.722656 1003.8125 294.890625 C 1076.628906 396.59375 1079.335938 544.035156 1011.632812 745.640625 C 967.402344 878.339844 879.539062 945.140625 750.152344 945.140625 Z M 750.152344 945.140625 " fill-opacity="1" fill-rule="nonzero"/><path fill="#09732f" d="M 1128.984375 490.476562 C 1119.355469 490.476562 1111.234375 482.652344 1110.933594 473.023438 C 1105.214844 259.082031 967.101562 126.386719 750.152344 126.386719 C 740.222656 126.386719 732.097656 118.261719 732.097656 108.332031 C 732.097656 98.402344 740.222656 90.277344 750.152344 90.277344 C 867.804688 90.277344 967.101562 126.6875 1037.210938 195.292969 C 1106.117188 262.695312 1144.03125 358.378906 1147.039062 472.121094 C 1147.339844 482.050781 1139.515625 490.476562 1129.585938 490.777344 C 1129.285156 490.476562 1128.984375 490.476562 1128.984375 490.476562 Z M 1128.984375 490.476562 " fill-opacity="1" fill-rule="nonzero"/><path fill="#09732f" d="M 1143.429688 727.886719 L 1107.621094 727.886719 C 1097.691406 727.886719 1089.566406 719.761719 1089.566406 709.832031 L 1089.566406 489.273438 C 1089.566406 479.34375 1097.691406 471.21875 1107.621094 471.21875 L 1143.429688 471.21875 C 1193.078125 471.21875 1233.699219 511.839844 1233.699219 561.488281 L 1233.699219 637.617188 C 1233.699219 687.566406 1193.378906 727.886719 1143.429688 727.886719 Z M 1125.976562 691.78125 L 1143.730469 691.78125 C 1173.519531 691.78125 1197.890625 667.40625 1197.890625 637.617188 L 1197.890625 561.488281 C 1197.890625 531.699219 1173.519531 507.328125 1143.730469 507.328125 L 1125.976562 507.328125 Z M 1125.976562 691.78125 " fill-opacity="1" fill-rule="nonzero"/><path fill="#09732f" d="M 750.152344 1112.140625 C 747.742188 1112.140625 745.335938 1111.539062 742.929688 1110.636719 C 649.648438 1070.3125 579.839844 1005.019531 565.398438 944.839844 C 565.097656 943.332031 564.796875 942.128906 564.796875 940.625 L 564.796875 883.453125 C 564.796875 873.523438 572.917969 865.398438 582.847656 865.398438 C 592.777344 865.398438 600.902344 873.523438 600.902344 883.453125 L 600.902344 938.519531 C 613.542969 986.0625 677.332031 1042.933594 757.070312 1077.535156 C 766.097656 1081.449219 770.3125 1092.28125 766.398438 1101.308594 C 763.691406 1107.925781 757.070312 1112.140625 750.152344 1112.140625 Z M 750.152344 1112.140625 " fill-opacity="1" fill-rule="nonzero"/><path fill="#09732f" d="M 607.523438 1197.292969 C 602.707031 1197.292969 597.894531 1195.1875 594.285156 1191.578125 C 555.167969 1149.152344 525.980469 1100.707031 507.625 1047.746094 C 501.90625 1031.195312 497.394531 1014.046875 493.78125 996.894531 C 490.472656 980.945312 497.09375 964.699219 510.632812 955.371094 L 572.917969 912.640625 C 581.042969 906.925781 592.476562 909.03125 597.894531 917.15625 C 603.609375 925.28125 601.503906 936.714844 593.378906 942.128906 L 531.09375 984.859375 C 529.589844 985.761719 528.988281 987.566406 529.289062 989.371094 C 532.296875 1005.019531 536.511719 1020.664062 541.925781 1035.710938 C 556.972656 1079.039062 579.839844 1119.058594 610.53125 1155.167969 L 726.378906 1073.023438 C 734.503906 1067.304688 745.636719 1069.109375 751.65625 1077.234375 C 757.371094 1085.359375 755.566406 1096.492188 747.441406 1102.511719 L 618.355469 1193.984375 C 614.746094 1196.089844 611.132812 1197.292969 607.523438 1197.292969 Z M 607.523438 1197.292969 " fill-opacity="1" fill-rule="nonzero"/><g clip-path="url(#edace4f41b)"><path fill="#09732f" d="M 750.152344 1408.226562 C 382.449219 1408.226562 312.039062 1377.234375 265.699219 1356.472656 C 259.980469 1353.765625 254.867188 1351.65625 249.75 1349.851562 C 221.464844 1339.320312 204.011719 1308.628906 200.402344 1263.492188 C 197.394531 1226.480469 203.410156 1182.851562 217.253906 1143.734375 C 245.839844 1061.890625 336.109375 1023.074219 395.988281 997.496094 C 458.578125 970.714844 513.339844 953.5625 515.746094 952.960938 C 525.375 949.953125 535.304688 955.371094 538.316406 965 C 541.324219 974.628906 535.910156 984.558594 526.28125 987.566406 C 525.675781 987.867188 470.914062 1004.71875 410.132812 1030.894531 C 356.269531 1054.066406 274.425781 1088.96875 251.253906 1155.769531 C 226.582031 1227.085938 231.695312 1305.019531 262.386719 1316.152344 C 268.40625 1318.558594 274.125 1320.964844 280.441406 1323.671875 C 321.367188 1341.726562 389.972656 1372.117188 750.152344 1372.117188 C 760.082031 1372.117188 768.203125 1380.242188 768.203125 1390.171875 C 768.203125 1400.101562 760.082031 1408.226562 750.152344 1408.226562 Z M 750.152344 1408.226562 " fill-opacity="1" fill-rule="nonzero"/></g><path fill="#09732f" d="M 750.152344 945.140625 C 620.761719 945.140625 532.898438 878.039062 488.367188 745.640625 C 420.964844 544.035156 423.371094 396.59375 496.1875 294.890625 C 583.449219 172.722656 743.832031 176.335938 750.453125 176.636719 C 760.382812 176.9375 768.203125 185.363281 767.902344 195.292969 C 767.601562 205.222656 759.175781 213.042969 749.246094 212.742188 C 747.742188 212.742188 601.503906 209.734375 525.375 315.953125 C 459.78125 407.425781 458.878906 544.335938 522.367188 734.207031 C 561.785156 851.859375 636.109375 909.03125 749.847656 909.03125 C 759.777344 909.03125 767.902344 917.15625 767.902344 927.085938 C 767.902344 937.015625 760.082031 945.140625 750.152344 945.140625 Z M 750.152344 945.140625 " fill-opacity="1" fill-rule="nonzero"/><path fill="#09732f" d="M 371.316406 490.476562 C 371.015625 490.476562 371.015625 490.476562 370.714844 490.476562 C 360.785156 490.175781 352.960938 482.050781 353.261719 471.820312 C 356.269531 358.078125 394.183594 262.394531 463.089844 194.992188 C 533.199219 126.6875 632.496094 90.277344 750.152344 90.277344 C 760.082031 90.277344 768.203125 98.402344 768.203125 108.332031 C 768.203125 118.261719 760.082031 126.386719 750.152344 126.386719 C 533.199219 126.386719 395.085938 259.082031 389.367188 473.023438 C 389.066406 482.953125 381.246094 490.476562 371.316406 490.476562 Z M 371.316406 490.476562 " fill-opacity="1" fill-rule="nonzero"/><path fill="#09732f" d="M 392.378906 727.886719 L 356.570312 727.886719 C 306.921875 727.886719 266.300781 687.265625 266.300781 637.617188 L 266.300781 561.488281 C 266.300781 511.839844 306.921875 471.21875 356.570312 471.21875 L 392.378906 471.21875 C 402.308594 471.21875 410.433594 479.34375 410.433594 489.273438 L 410.433594 709.832031 C 410.433594 720.066406 402.609375 727.886719 392.378906 727.886719 Z M 356.871094 507.328125 C 327.082031 507.328125 302.710938 531.699219 302.710938 561.488281 L 302.710938 637.617188 C 302.710938 667.40625 327.082031 691.78125 356.871094 691.78125 L 374.625 691.78125 L 374.625 507.328125 Z M 356.871094 507.328125 " fill-opacity="1" fill-rule="nonzero"/><path fill="#09732f" d="M 487.765625 668.007812 C 479.640625 668.007812 472.417969 662.59375 470.3125 654.46875 C 469.109375 649.953125 442.027344 540.726562 482.046875 482.652344 C 496.1875 462.191406 516.046875 450.15625 541.625 447.144531 C 560.28125 444.738281 579.839844 443.535156 600.300781 442.332031 C 686.058594 436.914062 783.550781 430.898438 862.6875 335.511719 C 866.597656 330.699219 872.917969 328.289062 879.238281 329.191406 C 885.554688 330.09375 890.671875 334.007812 893.378906 339.722656 C 917.453125 394.488281 949.347656 422.472656 980.039062 449.253906 C 987.261719 455.570312 994.785156 461.890625 1001.703125 468.8125 C 1045.9375 510.035156 1050.148438 536.816406 1041.421875 607.226562 C 1040.21875 617.15625 1031.191406 624.078125 1021.261719 622.875 C 1011.332031 621.667969 1004.414062 612.640625 1005.617188 602.710938 C 1013.742188 535.914062 1008.324219 524.476562 977.03125 495.289062 C 970.410156 488.972656 963.488281 482.953125 956.269531 476.636719 C 928.585938 452.5625 897.59375 425.480469 872.316406 378.839844 C 786.558594 466.703125 685.457031 473.023438 602.707031 478.140625 C 582.847656 479.34375 563.890625 480.546875 546.140625 482.652344 C 531.09375 484.457031 519.960938 491.078125 511.835938 502.8125 C 486.558594 539.824219 498.597656 618.359375 505.515625 645.441406 C 507.925781 655.070312 502.207031 665 492.578125 667.40625 C 490.773438 667.707031 489.269531 668.007812 487.765625 668.007812 Z M 487.765625 668.007812 " fill-opacity="1" fill-rule="nonzero"/><path fill="#09732f" d="M 884.652344 844.335938 C 874.722656 844.335938 866.597656 836.210938 866.597656 826.28125 C 866.597656 816.351562 874.722656 808.230469 884.652344 808.230469 C 1057.671875 808.230469 1096.488281 755.871094 1111.535156 704.71875 C 1114.242188 695.089844 1124.472656 689.671875 1134.101562 692.382812 C 1143.730469 695.089844 1149.144531 705.320312 1146.4375 714.949219 C 1132.898438 760.6875 1105.515625 793.183594 1062.789062 813.945312 C 1020.960938 834.707031 962.585938 844.335938 884.652344 844.335938 Z M 884.652344 844.335938 " fill-opacity="1" fill-rule="nonzero"/><path fill="#09732f" d="M 845.835938 878.941406 L 795.886719 878.941406 C 764.59375 878.941406 739.015625 853.363281 739.015625 822.070312 C 739.015625 790.777344 764.59375 765.199219 795.886719 765.199219 L 845.835938 765.199219 C 877.132812 765.199219 902.707031 790.777344 902.707031 822.070312 C 902.707031 853.363281 877.132812 878.941406 845.835938 878.941406 Z M 795.886719 801.007812 C 784.453125 801.007812 775.125 810.335938 775.125 821.769531 C 775.125 833.203125 784.453125 842.53125 795.886719 842.53125 L 845.835938 842.53125 C 857.273438 842.53125 866.597656 833.203125 866.597656 821.769531 C 866.597656 810.335938 857.273438 801.007812 845.835938 801.007812 Z M 795.886719 801.007812 " fill-opacity="1" fill-rule="nonzero"/></svg>