<svg xmlns="http://www.w3.org/2000/svg" xmlns:xlink="http://www.w3.org/1999/xlink" width="2000" zoomAndPan="magnify" viewBox="0 0 1500 1499.999933" height="2000" preserveAspectRatio="xMidYMid meet" version="1.0"><defs><clipPath id="16c8625518"><path d="M 51.75 42.046875 L 1404.75 42.046875 L 1404.75 1408.546875 L 51.75 1408.546875 Z M 51.75 42.046875 " clip-rule="nonzero"/></clipPath></defs><g clip-path="url(#16c8625518)"><path fill="#09732f" d="M 1328.175781 997.386719 C 1291.847656 997.386719 1261.386719 1022.859375 1253.621094 1056.863281 L 1010.488281 1056.863281 C 1005.980469 1056.863281 1001.644531 1058.648438 998.472656 1061.851562 L 937.007812 1123.316406 L 693.617188 1123.316406 L 693.617188 1072.394531 C 693.617188 1063.015625 685.996094 1055.390625 676.617188 1055.390625 C 494.605469 1055.390625 346.515625 907.300781 346.515625 725.289062 C 346.515625 543.28125 494.605469 395.1875 676.617188 395.1875 C 685.996094 395.1875 693.617188 387.566406 693.617188 378.1875 L 693.617188 327.265625 L 937.007812 327.265625 L 998.472656 388.726562 C 1001.675781 391.929688 1005.980469 393.714844 1010.488281 393.714844 L 1253.621094 393.714844 C 1261.386719 427.71875 1291.847656 453.195312 1328.175781 453.195312 C 1370.34375 453.195312 1404.660156 418.878906 1404.660156 376.710938 C 1404.660156 334.546875 1370.34375 300.230469 1328.175781 300.230469 C 1291.847656 300.230469 1261.386719 325.707031 1253.621094 359.710938 L 1017.542969 359.710938 L 956.078125 298.246094 C 952.90625 295.042969 948.570312 293.257812 944.0625 293.257812 L 693.617188 293.257812 L 693.617188 202.269531 L 897.988281 202.269531 C 902.492188 202.269531 906.828125 200.484375 910.003906 197.28125 L 971.464844 135.816406 L 1093.515625 135.816406 C 1101.28125 169.820312 1131.742188 195.296875 1168.070312 195.296875 C 1210.238281 195.296875 1244.554688 160.980469 1244.554688 118.8125 C 1244.554688 76.648438 1210.238281 42.332031 1168.070312 42.332031 C 1131.742188 42.332031 1101.28125 67.808594 1093.515625 101.8125 L 964.410156 101.8125 C 959.90625 101.8125 955.570312 103.597656 952.394531 106.800781 L 890.933594 168.261719 L 693.617188 168.261719 L 693.617188 117.339844 C 693.617188 107.960938 685.996094 100.339844 676.617188 100.339844 L 576.867188 100.339844 C 568.707031 100.339844 561.707031 106.148438 560.179688 114.136719 L 538.753906 226.15625 C 497.75 237.460938 458.304688 253.8125 421.210938 274.894531 L 326.820312 210.796875 C 320.078125 206.207031 311.007812 207.085938 305.253906 212.835938 L 164.191406 353.902344 C 158.410156 359.679688 157.5625 368.722656 162.152344 375.464844 L 226.25 469.855469 C 205.195312 506.921875 188.816406 546.367188 177.511719 587.398438 L 65.492188 608.796875 C 57.472656 610.324219 51.695312 617.324219 51.695312 625.484375 L 51.695312 824.980469 C 51.695312 833.140625 57.503906 840.140625 65.492188 841.671875 L 177.511719 863.066406 C 188.816406 904.070312 205.167969 943.515625 226.25 980.609375 L 162.152344 1075 C 157.5625 1081.746094 158.410156 1090.8125 164.191406 1096.566406 L 305.253906 1237.628906 C 311.035156 1243.410156 320.078125 1244.257812 326.820312 1239.667969 L 421.210938 1175.570312 C 458.277344 1196.625 497.722656 1213.003906 538.753906 1224.308594 L 560.179688 1336.328125 C 561.707031 1344.347656 568.707031 1350.128906 576.867188 1350.128906 L 676.617188 1350.128906 C 685.996094 1350.128906 693.617188 1342.503906 693.617188 1333.125 L 693.617188 1282.203125 L 890.933594 1282.203125 L 952.394531 1343.667969 C 955.597656 1346.871094 959.90625 1348.65625 964.410156 1348.65625 L 1093.515625 1348.65625 C 1101.28125 1382.660156 1131.742188 1408.132812 1168.070312 1408.132812 C 1210.238281 1408.132812 1244.554688 1373.816406 1244.554688 1331.652344 C 1244.554688 1289.484375 1210.238281 1255.167969 1168.070312 1255.167969 C 1131.742188 1255.167969 1101.28125 1280.644531 1093.515625 1314.648438 L 971.464844 1314.648438 L 910.003906 1253.1875 C 906.800781 1249.984375 902.492188 1248.199219 897.988281 1248.199219 L 693.617188 1248.199219 L 693.617188 1157.207031 L 944.0625 1157.207031 C 948.570312 1157.207031 952.90625 1155.421875 956.078125 1152.21875 L 1017.542969 1090.757812 L 1253.621094 1090.757812 C 1261.386719 1124.761719 1291.847656 1150.238281 1328.175781 1150.238281 C 1370.34375 1150.238281 1404.660156 1115.921875 1404.660156 1073.753906 C 1404.660156 1031.589844 1370.34375 997.273438 1328.175781 997.273438 Z M 1328.175781 334.234375 C 1351.613281 334.234375 1370.65625 353.304688 1370.65625 376.710938 C 1370.65625 400.117188 1351.582031 419.191406 1328.175781 419.191406 C 1304.769531 419.191406 1285.699219 400.148438 1285.699219 376.710938 C 1285.699219 353.277344 1304.769531 334.234375 1328.175781 334.234375 Z M 1168.042969 76.363281 C 1191.476562 76.363281 1210.519531 95.40625 1210.519531 118.84375 C 1210.519531 142.277344 1191.476562 161.320312 1168.042969 161.320312 C 1144.609375 161.320312 1125.566406 142.277344 1125.566406 118.84375 C 1125.566406 95.40625 1144.609375 76.363281 1168.042969 76.363281 Z M 659.585938 1316.207031 L 590.894531 1316.207031 L 570.125 1207.507812 C 568.878906 1201.015625 564.003906 1195.832031 557.601562 1194.214844 C 512.457031 1182.796875 469.273438 1164.886719 429.203125 1140.96875 C 423.535156 1137.570312 416.394531 1137.796875 410.925781 1141.507812 L 319.3125 1203.738281 L 198.140625 1082.539062 L 260.339844 990.925781 C 264.054688 985.453125 264.25 978.34375 260.878906 972.675781 C 236.960938 932.578125 219.054688 889.363281 207.632812 844.277344 C 206.019531 837.875 200.832031 833 194.34375 831.753906 L 85.640625 810.980469 L 85.640625 639.597656 L 194.34375 618.828125 C 200.832031 617.578125 206.019531 612.707031 207.632812 606.300781 C 219.054688 561.1875 236.960938 517.972656 260.878906 477.90625 C 264.25 472.238281 264.054688 465.097656 260.339844 459.65625 L 198.113281 368.042969 L 319.28125 246.84375 L 410.898438 309.070312 C 416.367188 312.785156 423.480469 312.980469 429.148438 309.609375 C 469.242188 285.691406 512.457031 267.785156 557.542969 256.363281 C 563.949219 254.75 568.820312 249.5625 570.066406 243.074219 L 590.839844 134.371094 L 659.527344 134.371094 L 659.527344 361.582031 C 466.609375 370.476562 312.425781 530.214844 312.425781 725.289062 C 312.425781 920.363281 466.609375 1080.101562 659.527344 1089 L 659.527344 1316.207031 Z M 1168.042969 1289.257812 C 1191.476562 1289.257812 1210.519531 1308.300781 1210.519531 1331.738281 C 1210.519531 1355.171875 1191.476562 1374.214844 1168.042969 1374.214844 C 1144.609375 1374.214844 1125.566406 1355.171875 1125.566406 1331.738281 C 1125.566406 1308.300781 1144.609375 1289.257812 1168.042969 1289.257812 Z M 1328.175781 1116.34375 C 1304.742188 1116.34375 1285.699219 1097.300781 1285.699219 1073.867188 C 1285.699219 1050.433594 1304.769531 1031.390625 1328.175781 1031.390625 C 1351.582031 1031.390625 1370.65625 1050.460938 1370.65625 1073.867188 C 1370.65625 1097.273438 1351.582031 1116.34375 1328.175781 1116.34375 Z M 937.179688 645.238281 C 946.558594 645.238281 954.179688 637.613281 954.179688 628.234375 C 954.179688 618.855469 946.558594 611.230469 937.179688 611.230469 L 895.238281 611.230469 L 895.238281 586.605469 C 895.238281 559.289062 873.023438 537.074219 845.707031 537.074219 L 821.082031 537.074219 L 821.082031 495.132812 C 821.082031 485.753906 813.457031 478.132812 804.078125 478.132812 C 794.699219 478.132812 787.074219 485.753906 787.074219 495.132812 L 787.074219 537.074219 L 724.023438 537.074219 L 724.023438 495.132812 C 724.023438 485.753906 716.402344 478.132812 707.023438 478.132812 C 697.644531 478.132812 690.019531 485.753906 690.019531 495.132812 L 690.019531 537.074219 L 626.996094 537.074219 L 626.996094 495.132812 C 626.996094 485.753906 619.375 478.132812 609.996094 478.132812 C 600.617188 478.132812 592.992188 485.753906 592.992188 495.132812 L 592.992188 537.074219 L 568.367188 537.074219 C 541.050781 537.074219 518.835938 559.289062 518.835938 586.605469 L 518.835938 611.230469 L 476.894531 611.230469 C 467.515625 611.230469 459.894531 618.855469 459.894531 628.234375 C 459.894531 637.613281 467.515625 645.238281 476.894531 645.238281 L 518.835938 645.238281 L 518.835938 708.289062 L 476.894531 708.289062 C 467.515625 708.289062 459.894531 715.910156 459.894531 725.289062 C 459.894531 734.667969 467.515625 742.292969 476.894531 742.292969 L 518.835938 742.292969 L 518.835938 805.34375 L 476.894531 805.34375 C 467.515625 805.34375 459.894531 812.964844 459.894531 822.34375 C 459.894531 831.726562 467.515625 839.347656 476.894531 839.347656 L 518.835938 839.347656 L 518.835938 863.972656 C 518.835938 891.289062 541.050781 913.507812 568.367188 913.507812 L 592.992188 913.507812 L 592.992188 955.445312 C 592.992188 964.824219 600.617188 972.449219 609.996094 972.449219 C 619.375 972.449219 626.996094 964.824219 626.996094 955.445312 L 626.996094 913.507812 L 690.019531 913.507812 L 690.019531 955.445312 C 690.019531 964.824219 697.644531 972.449219 707.023438 972.449219 C 716.402344 972.449219 724.023438 964.824219 724.023438 955.445312 L 724.023438 913.507812 L 787.074219 913.507812 L 787.074219 955.445312 C 787.074219 964.824219 794.699219 972.449219 804.078125 972.449219 C 813.457031 972.449219 821.082031 964.824219 821.082031 955.445312 L 821.082031 913.507812 L 845.707031 913.507812 C 873.023438 913.507812 895.238281 891.289062 895.238281 863.972656 L 895.238281 839.347656 L 937.179688 839.347656 C 946.558594 839.347656 954.179688 831.726562 954.179688 822.34375 C 954.179688 812.964844 946.558594 805.34375 937.179688 805.34375 L 895.238281 805.34375 L 895.238281 742.292969 L 937.179688 742.292969 C 946.558594 742.292969 954.179688 734.667969 954.179688 725.289062 C 954.179688 715.910156 946.558594 708.289062 937.179688 708.289062 L 895.238281 708.289062 L 895.238281 645.238281 Z M 861.234375 863.945312 C 861.234375 872.503906 854.261719 879.472656 845.707031 879.472656 L 568.367188 879.472656 C 559.808594 879.472656 552.839844 872.503906 552.839844 863.945312 L 552.839844 586.605469 C 552.839844 578.050781 559.808594 571.078125 568.367188 571.078125 L 845.707031 571.078125 C 854.261719 571.078125 861.234375 578.050781 861.234375 586.605469 Z M 861.234375 863.945312 " fill-opacity="1" fill-rule="nonzero"/></g></svg>