<svg xmlns="http://www.w3.org/2000/svg" xmlns:xlink="http://www.w3.org/1999/xlink" width="2000" zoomAndPan="magnify" viewBox="0 0 1500 1499.999933" height="2000" preserveAspectRatio="xMidYMid meet" version="1.0"><defs><clipPath id="fc5f9df773"><path d="M 197 42.046875 L 1303.570312 42.046875 L 1303.570312 1408.546875 L 197 1408.546875 Z M 197 42.046875 " clip-rule="nonzero"/></clipPath><clipPath id="b95267486c"><path d="M 523.460938 622.269531 L 750 622.269531 L 750 848.8125 L 523.460938 848.8125 Z M 523.460938 622.269531 " clip-rule="nonzero"/></clipPath><clipPath id="3b4e9fd9e2"><path d="M 636.730469 622.269531 C 574.171875 622.269531 523.460938 672.984375 523.460938 735.542969 C 523.460938 798.097656 574.171875 848.8125 636.730469 848.8125 C 699.285156 848.8125 750 798.097656 750 735.542969 C 750 672.984375 699.285156 622.269531 636.730469 622.269531 Z M 636.730469 622.269531 " clip-rule="nonzero"/></clipPath><clipPath id="a6f3063809"><path d="M 0.460938 0.269531 L 227 0.269531 L 227 226.8125 L 0.460938 226.8125 Z M 0.460938 0.269531 " clip-rule="nonzero"/></clipPath><clipPath id="e0f4bd1190"><path d="M 113.730469 0.269531 C 51.171875 0.269531 0.460938 50.984375 0.460938 113.542969 C 0.460938 176.097656 51.171875 226.8125 113.730469 226.8125 C 176.285156 226.8125 227 176.097656 227 113.542969 C 227 50.984375 176.285156 0.269531 113.730469 0.269531 Z M 113.730469 0.269531 " clip-rule="nonzero"/></clipPath><clipPath id="2f021cafba"><rect x="0" width="227" y="0" height="227"/></clipPath><clipPath id="4722a14633"><path d="M 569 648.519531 L 704.742188 648.519531 L 704.742188 851.769531 L 569 851.769531 Z M 569 648.519531 " clip-rule="nonzero"/></clipPath></defs><g clip-path="url(#fc5f9df773)"><path fill="#09732f" d="M 419.828125 1364.292969 L 1097.902344 1364.292969 L 1108.777344 1375.164062 C 1130.222656 1396.609375 1158.820312 1408.414062 1189.304688 1408.414062 L 1189.367188 1408.414062 C 1219.839844 1408.398438 1248.402344 1396.585938 1269.761719 1375.179688 C 1291.21875 1353.769531 1303.03125 1325.191406 1303.03125 1294.699219 C 1303.03125 1264.210938 1291.21875 1235.632812 1269.78125 1214.242188 L 1240.402344 1184.847656 L 1240.402344 257.59375 C 1240.402344 217.949219 1208.179688 185.695312 1168.578125 185.695312 L 1089.699219 185.695312 L 1089.699219 113.789062 C 1089.699219 74.183594 1057.441406 41.964844 1017.792969 41.964844 L 445.394531 41.964844 C 435.738281 41.964844 426.597656 43.828125 418.21875 47.417969 C 417.296875 47.757812 416.402344 48.152344 415.554688 48.625 C 408.703125 51.925781 402.402344 56.421875 396.804688 62.066406 L 217.320312 241.550781 C 209.742188 249.125 204.226562 257.894531 200.890625 267.5 C 200.644531 268.136719 200.433594 268.785156 200.25 269.449219 C 198.199219 276.007812 197.140625 282.9375 197.140625 290.136719 L 197.140625 1148.660156 C 197.140625 1188.265625 229.398438 1220.484375 269.042969 1220.484375 L 347.925781 1220.484375 L 347.925781 1292.464844 C 347.925781 1332.070312 380.183594 1364.292969 419.832031 1364.292969 Z M 419.828125 1325.554688 C 401.542969 1325.554688 386.664062 1310.710938 386.664062 1292.464844 L 386.664062 1220.484375 L 954.097656 1220.484375 L 1059.167969 1325.554688 Z M 845.199219 1019.402344 C 871.121094 999.960938 894.25 976.832031 913.921875 950.484375 L 970.070312 1006.636719 C 954.664062 1012.109375 940.199219 1020.976562 927.882812 1033.265625 C 915.796875 1045.351562 906.773438 1059.710938 901.195312 1075.398438 Z M 803.789062 1000.996094 C 777.578125 1017.796875 748.652344 1030.636719 717.71875 1038.917969 C 638.945312 1060.027344 556.667969 1049.214844 486.054688 1008.457031 C 415.441406 967.703125 364.929688 901.875 343.816406 823.101562 C 300.246094 660.519531 397.058594 492.789062 559.636719 449.199219 C 722.214844 405.640625 889.953125 502.488281 933.535156 665.09375 C 954.644531 743.832031 943.816406 826.089844 903.046875 896.714844 C 900.558594 901.023438 897.972656 905.257812 895.300781 909.414062 C 895.113281 909.6875 894.9375 909.964844 894.761719 910.242188 C 871.359375 946.410156 841.085938 976.703125 805.773438 999.730469 C 805.09375 1000.105469 804.429688 1000.53125 803.789062 1000.996094 Z M 1264.296875 1294.699219 C 1264.296875 1314.828125 1256.519531 1333.667969 1242.375 1347.789062 C 1228.296875 1361.894531 1209.464844 1369.671875 1189.347656 1369.679688 L 1189.304688 1369.679688 C 1169.167969 1369.679688 1150.296875 1361.902344 1136.167969 1347.773438 L 1119.625 1331.230469 C 1119.625 1331.230469 1119.621094 1331.226562 1119.621094 1331.226562 L 975.839844 1187.449219 C 975.824219 1187.429688 975.808594 1187.414062 975.789062 1187.398438 L 955.257812 1166.863281 C 941.632812 1153.265625 933.933594 1135.230469 933.414062 1115.890625 C 933.417969 1115.558594 933.402344 1115.226562 933.390625 1114.894531 C 933.382812 1114.542969 933.363281 1114.191406 933.363281 1113.835938 C 933.351562 1093.683594 941.132812 1074.792969 955.257812 1060.667969 C 969.902344 1046.054688 989.144531 1038.746094 1008.382812 1038.746094 C 1008.804688 1038.746094 1009.226562 1038.769531 1009.648438 1038.777344 C 1009.851562 1038.785156 1010.058594 1038.808594 1010.265625 1038.808594 C 1010.332031 1038.808594 1010.402344 1038.796875 1010.472656 1038.796875 C 1029.007812 1039.308594 1047.394531 1046.582031 1061.507812 1060.667969 L 1207.152344 1206.375 C 1207.28125 1206.507812 1207.40625 1206.636719 1207.539062 1206.761719 L 1242.402344 1241.644531 C 1256.519531 1255.734375 1264.296875 1274.574219 1264.296875 1294.699219 Z M 1168.578125 224.429688 C 1186.824219 224.429688 1201.664062 239.308594 1201.664062 257.59375 L 1201.664062 1146.09375 L 1089.695312 1034.074219 L 1089.695312 224.429688 Z M 405.558594 108.089844 L 405.558594 217.214844 C 405.558594 235.210938 390.769531 249.746094 371.855469 250.3125 L 259.785156 253.863281 Z M 235.875 1148.660156 L 235.875 293.375 L 373.046875 289.03125 C 413 287.835938 444.296875 256.289062 444.296875 217.214844 L 444.296875 80.746094 C 444.664062 80.734375 445.015625 80.699219 445.390625 80.699219 L 1017.792969 80.699219 C 1036.082031 80.699219 1050.960938 95.542969 1050.960938 113.789062 L 1050.960938 1008.234375 C 1040.585938 1004.078125 1029.71875 1001.507812 1018.734375 1000.515625 L 935.738281 917.519531 C 936.019531 917.039062 936.3125 916.566406 936.589844 916.082031 C 982.539062 836.492188 994.738281 743.796875 970.949219 655.066406 C 921.839844 471.820312 732.828125 362.6875 549.605469 411.785156 C 549.605469 411.785156 549.605469 411.785156 549.601562 411.785156 C 366.402344 460.90625 257.304688 649.917969 306.402344 833.128906 C 330.191406 921.894531 387.117188 996.078125 466.691406 1042.003906 C 519.683594 1072.589844 578.496094 1088.210938 638.09375 1088.210938 C 667.988281 1088.210938 698.085938 1084.28125 727.738281 1076.335938 C 757.757812 1068.300781 786.097656 1056.457031 812.253906 1041.238281 L 895.101562 1124.085938 C 896.964844 1145.15625 904.519531 1164.988281 917.035156 1181.75 L 269.042969 1181.75 C 250.757812 1181.75 235.878906 1166.90625 235.878906 1148.660156 Z M 857.253906 685.492188 C 841.613281 627.125 804.171875 578.339844 751.828125 548.125 C 699.46875 517.898438 638.480469 509.886719 580.097656 525.5625 C 459.597656 557.863281 387.816406 682.148438 420.101562 802.636719 C 447.207031 903.601562 538.898438 970.359375 638.792969 970.359375 C 658.101562 970.359375 677.722656 967.863281 697.238281 962.636719 C 755.628906 947.003906 804.429688 909.5625 834.648438 857.214844 C 864.863281 804.875 872.890625 743.890625 857.253906 685.492188 Z M 801.101562 837.847656 C 776.058594 881.234375 735.613281 912.261719 687.222656 925.21875 C 671.039062 929.550781 654.789062 931.621094 638.777344 931.617188 C 555.984375 931.613281 479.976562 876.277344 457.511719 792.601562 C 430.757812 692.746094 490.25 589.738281 590.132812 562.976562 C 590.136719 562.972656 590.136719 562.972656 590.140625 562.972656 C 606.320312 558.628906 622.734375 556.480469 639.046875 556.480469 C 671.523438 556.480469 703.582031 565 732.464844 581.671875 C 775.847656 606.714844 806.878906 647.144531 819.835938 695.511719 C 832.796875 743.917969 826.144531 794.464844 801.101562 837.851562 Z M 524.351562 223.878906 C 524.351562 213.183594 533.023438 204.511719 543.71875 204.511719 L 776.601562 204.511719 C 787.296875 204.511719 795.96875 213.183594 795.96875 223.878906 C 795.96875 234.574219 787.296875 243.246094 776.601562 243.246094 L 543.71875 243.246094 C 533.019531 243.246094 524.351562 234.574219 524.351562 223.878906 Z M 705.695312 688.265625 C 713.257812 695.832031 713.25 708.097656 705.683594 715.65625 L 621.3125 799.945312 C 617.65625 803.597656 612.722656 805.613281 607.625 805.613281 C 606.785156 805.613281 605.9375 805.554688 605.089844 805.445312 C 599.125 804.660156 593.859375 801.140625 590.851562 795.925781 L 568.582031 757.347656 C 563.234375 748.085938 566.40625 736.238281 575.671875 730.894531 C 584.9375 725.542969 596.785156 728.71875 602.128906 737.984375 L 611.785156 754.710938 L 678.308594 688.253906 C 685.871094 680.691406 698.136719 680.695312 705.695312 688.265625 Z M 705.695312 688.265625 " fill-opacity="1" fill-rule="nonzero"/></g><g clip-path="url(#b95267486c)"><g clip-path="url(#3b4e9fd9e2)"><g transform="matrix(1, 0, 0, 1, 523, 622)"><g clip-path="url(#2f021cafba)"><g clip-path="url(#a6f3063809)"><g clip-path="url(#e0f4bd1190)"><path fill="#ffffff" d="M 0.460938 0.269531 L 227 0.269531 L 227 226.8125 L 0.460938 226.8125 Z M 0.460938 0.269531 " fill-opacity="1" fill-rule="nonzero"/></g></g></g></g></g></g><g clip-path="url(#4722a14633)"><path fill="#09732f" d="M 704.363281 648.519531 L 690.5 669.011719 L 661.71875 669.011719 C 664.734375 672.429688 667.179688 676.210938 669.054688 680.367188 C 670.996094 684.613281 672.378906 689.503906 673.207031 695.039062 L 704.359375 695.039062 L 690.5 715.53125 L 673.207031 715.53125 C 672.160156 722.140625 669.96875 728.347656 666.636719 734.152344 C 663.300781 739.910156 658.988281 744.804688 653.6875 748.828125 C 648.332031 752.9375 641.984375 756.144531 634.648438 758.449219 C 627.316406 760.753906 619.078125 761.910156 609.9375 761.914062 L 694.117188 851.488281 L 657.285156 851.488281 L 576.015625 764.128906 L 576.015625 743.636719 L 596.382812 743.636719 C 602.355469 743.679688 608.261719 743.082031 614.101562 741.835938 C 619.21875 740.765625 624.066406 738.964844 628.640625 736.4375 C 632.726562 734.179688 636.257812 731.25 639.230469 727.652344 C 642.121094 724.0625 644.085938 720.023438 645.117188 715.535156 L 569.09375 715.535156 L 582.941406 695.042969 L 644.972656 695.042969 C 642.84375 687.105469 638.296875 680.785156 631.328125 676.078125 C 624.359375 671.371094 614.875 669.015625 602.875 669.011719 L 569.09375 669.011719 L 582.941406 648.519531 Z M 704.363281 648.519531 " fill-opacity="1" fill-rule="nonzero"/></g></svg>