<svg xmlns="http://www.w3.org/2000/svg" xmlns:xlink="http://www.w3.org/1999/xlink" width="2000" zoomAndPan="magnify" viewBox="0 0 1500 1499.999933" height="2000" preserveAspectRatio="xMidYMid meet" version="1.0"><defs><clipPath id="48c672cd90"><path d="M 61.59375 42.046875 L 1438.59375 42.046875 L 1438.59375 1408.546875 L 61.59375 1408.546875 Z M 61.59375 42.046875 " clip-rule="nonzero"/></clipPath></defs><g clip-path="url(#48c672cd90)"><path fill="#09732f" d="M 687.542969 319.9375 C 675.558594 307.0625 695.046875 288.742188 707.167969 301.484375 L 741.320312 337.84375 L 829.257812 277.039062 C 843.789062 267.050781 858.9375 289.089844 844.542969 299.140625 L 747.105469 366.558594 C 746.449219 367.011719 745.761719 367.410156 745.035156 367.742188 C 744.308594 368.074219 743.558594 368.339844 742.785156 368.539062 C 742.015625 368.738281 741.230469 368.863281 740.433594 368.921875 C 739.636719 368.980469 738.839844 368.96875 738.046875 368.882812 C 737.253906 368.796875 736.472656 368.644531 735.707031 368.417969 C 734.941406 368.195312 734.203125 367.902344 733.488281 367.546875 C 732.773438 367.1875 732.097656 366.769531 731.457031 366.292969 C 730.820312 365.8125 730.226562 365.28125 729.683594 364.699219 Z M 1410.101562 864.148438 L 1338.554688 929.980469 C 1336.835938 931.566406 1335.058594 933.078125 1333.21875 934.519531 C 1331.378906 935.964844 1329.484375 937.328125 1327.535156 938.621094 C 1325.585938 939.910156 1323.585938 941.121094 1321.539062 942.25 C 1319.492188 943.378906 1317.402344 944.425781 1315.273438 945.386719 C 1313.140625 946.347656 1310.976562 947.222656 1308.773438 948.011719 C 1306.574219 948.796875 1304.34375 949.496094 1302.085938 950.105469 C 1299.832031 950.714844 1297.550781 951.230469 1295.253906 951.65625 C 1292.953125 952.082031 1290.644531 952.414062 1288.316406 952.65625 C 1285.992188 952.894531 1283.660156 953.042969 1281.324219 953.09375 C 1278.984375 953.148438 1276.652344 953.105469 1274.316406 952.972656 C 1271.984375 952.835938 1269.65625 952.609375 1267.34375 952.289062 C 1265.027344 951.964844 1262.726562 951.550781 1260.445312 951.046875 C 1258.164062 950.539062 1255.90625 949.945312 1253.671875 949.257812 C 1251.4375 948.570312 1249.234375 947.792969 1247.0625 946.929688 C 1244.886719 946.0625 1242.753906 945.113281 1240.660156 944.078125 C 1238.5625 943.042969 1236.511719 941.921875 1234.507812 940.722656 C 1228.929688 971.433594 1220.941406 1002.148438 1199.664062 1028.796875 C 1215.570312 1066.667969 1195.253906 1112.601562 1155.246094 1125.820312 C 1232.164062 1179.945312 1158.550781 1297.5625 1075.644531 1250.183594 L 1053.125 1236.550781 C 1058.222656 1293.222656 1002.71875 1344.179688 941.570312 1310.300781 L 893.917969 1281.378906 C 901.5625 1339.84375 835.457031 1388.664062 782.363281 1354.992188 C 779.125 1353.613281 748.964844 1332.40625 745.179688 1329.925781 C 741.871094 1337.570312 709.714844 1373.996094 704.136719 1381.160156 C 661.789062 1434.25 571.441406 1404.433594 569.789062 1336.742188 C 523.71875 1362.980469 459.886719 1327.378906 458.921875 1273.941406 C 399.148438 1306.652344 326.640625 1242.128906 353.152344 1178.980469 C 287.457031 1188.347656 243.730469 1104.472656 287.457031 1054.894531 L 298.957031 1040.984375 C 280.914062 1011.511719 270.171875 977.355469 259.429688 944.304688 C 227.136719 960.484375 188.503906 954.976562 161.371094 929.980469 L 89.894531 864.148438 C 54.363281 832.953125 51.882812 773.871094 84.730469 739.785156 L 330.910156 471.914062 C 363.894531 436.105469 419.738281 433.835938 455.480469 466.679688 L 526.957031 532.304688 C 529.441406 534.621094 531.789062 537.070312 533.992188 539.65625 C 536.195312 542.242188 538.246094 544.945312 540.140625 547.765625 C 542.03125 550.589844 543.757812 553.507812 545.3125 556.527344 C 546.871094 559.550781 548.246094 562.648438 549.445312 565.828125 C 550.644531 569.007812 551.660156 572.242188 552.484375 575.539062 C 553.3125 578.835938 553.945312 582.167969 554.390625 585.535156 C 554.832031 588.902344 555.082031 592.285156 555.132812 595.683594 C 555.1875 599.082031 555.042969 602.46875 554.707031 605.851562 C 601.121094 603.164062 712.539062 654.121094 762.601562 669.546875 C 793.242188 658.390625 913.335938 601.855469 944.945312 602.40625 C 944.742188 599.15625 944.71875 595.90625 944.875 592.65625 C 945.03125 589.402344 945.367188 586.167969 945.882812 582.953125 C 946.402344 579.742188 947.09375 576.5625 947.964844 573.425781 C 948.832031 570.289062 949.871094 567.207031 951.082031 564.1875 C 952.292969 561.164062 953.667969 558.21875 955.207031 555.347656 C 956.746094 552.480469 958.4375 549.703125 960.285156 547.023438 C 962.132812 544.34375 964.121094 541.769531 966.253906 539.3125 C 968.386719 536.851562 970.648438 534.515625 973.039062 532.304688 L 1044.585938 466.679688 C 1078.464844 433.835938 1137.824219 436.382812 1169.089844 471.914062 L 1415.265625 739.785156 C 1448.113281 773.941406 1445.636719 832.953125 1410.101562 864.148438 Z M 265.765625 906.773438 L 512.359375 638.695312 C 535.152344 614.320312 533.292969 574.378906 508.707031 552.136719 L 437.230469 486.511719 C 435.753906 485.15625 434.21875 483.875 432.617188 482.667969 C 431.015625 481.460938 429.359375 480.335938 427.648438 479.292969 C 425.9375 478.25 424.175781 477.292969 422.371094 476.421875 C 420.566406 475.550781 418.722656 474.769531 416.839844 474.078125 C 414.957031 473.390625 413.046875 472.792969 411.105469 472.292969 C 409.164062 471.789062 407.203125 471.382812 405.222656 471.074219 C 403.242188 470.765625 401.25 470.554688 399.25 470.441406 C 397.25 470.328125 395.246094 470.3125 393.242188 470.394531 C 391.242188 470.476562 389.246094 470.65625 387.261719 470.9375 C 385.277344 471.214844 383.308594 471.589844 381.363281 472.0625 C 379.414062 472.535156 377.492188 473.101562 375.601562 473.761719 C 373.707031 474.421875 371.851562 475.175781 370.035156 476.019531 C 368.214844 476.859375 366.441406 477.789062 364.714844 478.808594 C 362.988281 479.824219 361.3125 480.925781 359.695312 482.105469 C 358.074219 483.289062 356.515625 484.546875 355.019531 485.878906 C 353.523438 487.214844 352.097656 488.621094 350.742188 490.09375 L 104.492188 758.035156 C 81.699219 781.722656 83.421875 822.625 108.074219 844.316406 L 179.621094 910.148438 C 203.722656 932.941406 243.730469 931.152344 265.765625 906.773438 Z M 383.519531 1135.804688 L 417.949219 1094.488281 C 458.578125 1043.324219 385.101562 983.140625 342.132812 1031.273438 L 308.117188 1072.109375 C 290.761719 1092.90625 293.65625 1124.101562 314.519531 1141.660156 C 335.382812 1159.21875 366.164062 1156.050781 383.519531 1135.804688 Z M 499.273438 1191.929688 C 528.882812 1147.238281 473.726562 1094.421875 430.136719 1125.0625 C 421.738281 1129.402344 393.226562 1167.207031 386.273438 1174.574219 C 357.902344 1206.871094 386.066406 1260.167969 428.621094 1255.210938 C 431.839844 1254.929688 434.996094 1254.328125 438.09375 1253.414062 C 441.191406 1252.5 444.167969 1251.292969 447.023438 1249.785156 C 449.878906 1248.277344 452.554688 1246.5 455.058594 1244.460938 C 457.558594 1242.417969 459.835938 1240.148438 461.882812 1237.652344 C 463.671875 1235.65625 499.550781 1192.753906 499.273438 1191.929688 Z M 609.660156 1256.453125 C 643.195312 1204.117188 571.714844 1150.0625 531.019531 1196.953125 L 496.933594 1237.722656 C 479.441406 1257.757812 482.609375 1290.742188 503.335938 1307.269531 C 504.582031 1308.300781 505.871094 1309.265625 507.210938 1310.171875 C 508.550781 1311.074219 509.929688 1311.910156 511.351562 1312.675781 C 512.773438 1313.445312 514.226562 1314.140625 515.714844 1314.765625 C 517.203125 1315.390625 518.71875 1315.945312 520.261719 1316.421875 C 521.804688 1316.898438 523.367188 1317.296875 524.949219 1317.621094 C 526.53125 1317.945312 528.128906 1318.191406 529.734375 1318.359375 C 531.339844 1318.527344 532.949219 1318.613281 534.566406 1318.625 C 536.179688 1318.632812 537.792969 1318.5625 539.398438 1318.417969 C 541.007812 1318.269531 542.605469 1318.042969 544.191406 1317.738281 C 545.777344 1317.433594 547.34375 1317.050781 548.894531 1316.59375 C 550.441406 1316.132812 551.964844 1315.601562 553.460938 1314.992188 C 554.957031 1314.386719 556.417969 1313.707031 557.851562 1312.957031 C 559.28125 1312.207031 560.667969 1311.386719 562.019531 1310.5 C 563.367188 1309.613281 564.671875 1308.660156 565.925781 1307.648438 C 567.183594 1306.632812 568.386719 1305.558594 569.539062 1304.425781 C 570.691406 1303.292969 571.785156 1302.105469 572.816406 1300.867188 Z M 641.679688 1260.238281 L 607.867188 1300.9375 C 567.378906 1351.753906 640.441406 1413.042969 683.476562 1363.945312 C 691.535156 1352.789062 724.246094 1319.664062 726.65625 1306.101562 C 742.972656 1255.144531 675.351562 1219.609375 641.679688 1260.238281 Z M 1155.589844 1015.851562 L 879.25 849.824219 C 842.480469 827.515625 795.929688 829.375 760.671875 854.371094 L 673.148438 916.484375 C 599.878906 965.375 522.550781 870 582.390625 806.71875 L 659.445312 725.804688 C 674.042969 707.351562 701.796875 695.574219 726.792969 685.246094 L 608.902344 642.757812 C 590.308594 635.527344 570.683594 632.292969 548.027344 632.566406 C 553.125 641.519531 291.175781 916.140625 282.5 928.191406 C 292.757812 959.246094 302.398438 992.644531 317.066406 1019.363281 C 369.539062 947.675781 481.09375 1005.175781 451.621094 1089.460938 C 493.078125 1085.46875 532.328125 1118.453125 534.1875 1160.527344 C 581.011719 1135.253906 643.195312 1170.304688 644.847656 1223.878906 C 699.179688 1195.578125 765.699219 1243.023438 754.886719 1303.898438 L 791.726562 1329.304688 L 795.652344 1331.648438 C 848.332031 1361.601562 895.570312 1289.640625 847.4375 1253.214844 L 768.175781 1199.296875 C 753.578125 1189.3125 768.867188 1167.207031 783.328125 1177.054688 L 862.792969 1231.109375 L 869.128906 1234.964844 L 955.273438 1287.164062 C 1008.160156 1317.1875 1055.328125 1242.816406 1005.40625 1207.699219 L 837.660156 1104.886719 C 837.25 1104.671875 836.851562 1104.4375 836.46875 1104.183594 C 836.082031 1103.929688 835.710938 1103.65625 835.355469 1103.363281 C 834.996094 1103.070312 834.65625 1102.761719 834.332031 1102.433594 C 834.003906 1102.105469 833.699219 1101.761719 833.410156 1101.402344 C 833.117188 1101.042969 832.847656 1100.667969 832.597656 1100.28125 C 832.34375 1099.894531 832.113281 1099.496094 831.902344 1099.082031 C 831.691406 1098.671875 831.503906 1098.253906 831.335938 1097.820312 C 831.167969 1097.390625 831.023438 1096.953125 830.902344 1096.507812 C 830.777344 1096.0625 830.679688 1095.613281 830.601562 1095.15625 C 830.527344 1094.703125 830.472656 1094.246094 830.445312 1093.785156 C 830.414062 1093.324219 830.410156 1092.863281 830.429688 1092.398438 C 830.445312 1091.9375 830.488281 1091.480469 830.550781 1091.023438 C 830.617188 1090.566406 830.707031 1090.113281 830.816406 1089.664062 C 830.929688 1089.214844 831.0625 1088.777344 831.21875 1088.339844 C 831.378906 1087.90625 831.554688 1087.480469 831.757812 1087.066406 C 831.957031 1086.648438 832.179688 1086.246094 832.421875 1085.851562 C 832.664062 1085.460938 832.925781 1085.078125 833.207031 1084.710938 C 833.484375 1084.347656 833.785156 1083.996094 834.101562 1083.660156 C 834.417969 1083.324219 834.753906 1083.003906 835.101562 1082.703125 C 835.453125 1082.402344 835.816406 1082.121094 836.195312 1081.855469 C 836.574219 1081.59375 836.964844 1081.347656 837.371094 1081.125 C 837.773438 1080.898438 838.1875 1080.699219 838.613281 1080.515625 C 839.035156 1080.335938 839.46875 1080.175781 839.910156 1080.039062 C 840.351562 1079.902344 840.796875 1079.789062 841.25 1079.695312 C 841.703125 1079.605469 842.160156 1079.539062 842.621094 1079.492188 C 843.078125 1079.449219 843.539062 1079.429688 844 1079.429688 C 844.464844 1079.433594 844.921875 1079.460938 845.382812 1079.511719 C 845.839844 1079.5625 846.296875 1079.636719 846.75 1079.730469 C 847.199219 1079.828125 847.644531 1079.949219 848.085938 1080.089844 C 848.523438 1080.234375 848.953125 1080.398438 849.375 1080.585938 C 849.796875 1080.773438 850.210938 1080.980469 850.609375 1081.210938 C 851.011719 1081.4375 851.398438 1081.6875 851.773438 1081.957031 L 1020.003906 1185.109375 L 1089.347656 1227.046875 C 1143.332031 1258.035156 1190.640625 1179.945312 1137.824219 1146.546875 C 1112.277344 1128.921875 923.183594 1024.183594 891.507812 1006.210938 C 876.152344 997.464844 889.304688 974.328125 904.660156 982.726562 L 1108.628906 1097.175781 C 1134.175781 1113.703125 1174.597656 1093.9375 1177.488281 1063.570312 C 1180.792969 1044.976562 1171.566406 1025.285156 1155.589844 1015.851562 Z M 1210.679688 920.820312 C 1205.792969 912.765625 937.300781 631.878906 950.453125 628.78125 C 920.910156 627.609375 796.894531 686.140625 768.109375 696.472656 C 741.667969 710.3125 696.769531 722.226562 679.761719 743.433594 L 601.878906 825.3125 C 563.726562 864.90625 611.585938 925.089844 657.585938 894.515625 L 745.039062 832.472656 C 747.703125 830.570312 750.429688 828.765625 753.21875 827.0625 C 756.011719 825.359375 758.863281 823.761719 761.773438 822.265625 C 764.679688 820.769531 767.640625 819.378906 770.652344 818.097656 C 773.660156 816.816406 776.714844 815.648438 779.808594 814.589844 C 782.902344 813.53125 786.03125 812.585938 789.195312 811.753906 C 792.359375 810.925781 795.550781 810.210938 798.765625 809.609375 C 801.980469 809.011719 805.214844 808.53125 808.464844 808.167969 C 811.714844 807.804688 814.976562 807.558594 818.246094 807.433594 C 821.511719 807.308594 824.78125 807.300781 828.050781 807.410156 C 831.320312 807.523438 834.582031 807.753906 837.832031 808.101562 C 841.085938 808.453125 844.320312 808.917969 847.539062 809.503906 C 850.757812 810.089844 853.953125 810.789062 857.117188 811.605469 C 860.285156 812.421875 863.417969 813.355469 866.519531 814.398438 C 869.617188 815.445312 872.675781 816.601562 875.691406 817.867188 C 878.707031 819.136719 881.671875 820.511719 884.589844 821.996094 C 887.503906 823.476562 890.359375 825.066406 893.160156 826.757812 L 1169.433594 992.78125 C 1174.886719 996.050781 1179.824219 999.976562 1184.238281 1004.558594 C 1200.28125 980.523438 1205.378906 952.496094 1210.679688 920.820312 Z M 1395.503906 758.035156 L 1149.324219 490.09375 C 1127.496094 465.441406 1086.59375 463.652344 1062.765625 486.511719 L 991.21875 552.136719 C 989.246094 553.960938 987.402344 555.90625 985.6875 557.976562 C 983.972656 560.042969 982.398438 562.210938 980.96875 564.488281 C 979.539062 566.761719 978.265625 569.121094 977.144531 571.5625 C 976.027344 574.003906 975.074219 576.507812 974.285156 579.078125 C 973.496094 581.644531 972.878906 584.253906 972.433594 586.902344 C 971.988281 589.550781 971.71875 592.21875 971.625 594.902344 C 971.53125 597.589844 971.617188 600.265625 971.875 602.941406 C 972.136719 605.613281 972.570312 608.261719 973.175781 610.875 C 974.253906 616.078125 976.011719 621.035156 978.457031 625.746094 C 980.902344 630.460938 983.9375 634.753906 987.570312 638.628906 L 1234.023438 906.566406 C 1257.507812 931.425781 1295.863281 932.664062 1320.375 910.148438 L 1391.855469 844.386719 C 1391.855469 844.339844 1391.878906 844.316406 1391.921875 844.316406 C 1416.574219 822.695312 1418.226562 781.652344 1395.503906 758.035156 Z M 485.984375 222.566406 C 483.160156 183.9375 510.84375 149.574219 550.300781 142.550781 C 623.5 129.605469 677.96875 91.386719 710.679688 61.640625 C 739.738281 35.265625 784.84375 35.886719 813.351562 62.878906 C 844.820312 92.695312 898.464844 130.777344 975.65625 143.101562 C 1015.046875 149.367188 1042.726562 183.316406 1039.972656 222.15625 C 1033.5 312.707031 997.554688 482.039062 829.394531 598.6875 C 789.730469 626.234375 736.363281 626.234375 696.628906 598.6875 C 528.539062 482.3125 492.527344 313.050781 485.984375 222.566406 Z M 512.839844 220.640625 C 518.96875 306.371094 553.125 466.542969 711.917969 576.582031 C 742.492188 597.722656 783.535156 597.792969 814.039062 576.582031 C 973.039062 466.335938 1006.988281 305.960938 1013.117188 220.226562 C 1014.90625 195.4375 996.933594 173.746094 971.386719 169.683594 C 963.15625 168.375 954.988281 166.757812 946.882812 164.835938 C 938.773438 162.910156 930.75 160.683594 922.808594 158.15625 C 914.871094 155.625 907.035156 152.800781 899.308594 149.683594 C 891.582031 146.5625 883.984375 143.15625 876.515625 139.464844 C 869.046875 135.769531 861.726562 131.800781 854.554688 127.558594 C 847.382812 123.3125 840.382812 118.804688 833.550781 114.03125 C 826.722656 109.257812 820.082031 104.234375 813.628906 98.960938 C 807.175781 93.6875 800.933594 88.179688 794.894531 82.433594 C 776.441406 65.011719 747.449219 64.667969 728.789062 81.539062 C 693.394531 113.699219 634.585938 154.945312 554.984375 169.0625 C 529.160156 173.675781 511.050781 195.851562 512.839844 220.640625 Z M 666.125 443.957031 C 639.613281 450.566406 613.585938 439.617188 599.949219 415.929688 C 586.316406 392.242188 589.6875 364.214844 608.695312 344.589844 C 609.429688 343.839844 610.128906 343.050781 610.789062 342.234375 C 611.453125 341.414062 612.070312 340.5625 612.648438 339.683594 C 613.226562 338.804688 613.761719 337.898438 614.25 336.964844 C 614.742188 336.035156 615.183594 335.082031 615.582031 334.105469 C 615.980469 333.132812 616.332031 332.140625 616.632812 331.132812 C 616.933594 330.125 617.1875 329.101562 617.390625 328.070312 C 617.59375 327.035156 617.746094 325.996094 617.847656 324.949219 C 617.949219 323.898438 618 322.851562 618 321.796875 C 618 320.746094 617.949219 319.695312 617.847656 318.644531 C 617.746094 317.597656 617.59375 316.558594 617.390625 315.523438 C 617.1875 314.492188 616.933594 313.472656 616.632812 312.460938 C 616.332031 311.453125 615.980469 310.460938 615.582031 309.488281 C 615.183594 308.511719 614.742188 307.558594 614.25 306.628906 C 613.761719 305.695312 613.226562 304.792969 612.648438 303.910156 C 612.070312 303.03125 611.453125 302.179688 610.789062 301.363281 C 610.128906 300.542969 609.429688 299.757812 608.695312 299.003906 C 589.6875 279.308594 586.246094 251.351562 599.878906 227.664062 C 613.515625 203.976562 639.613281 192.957031 666.125 199.636719 C 667.144531 199.894531 668.175781 200.105469 669.214844 200.265625 C 670.257812 200.421875 671.304688 200.53125 672.355469 200.589844 C 673.40625 200.644531 674.457031 200.652344 675.507812 200.609375 C 676.558594 200.566406 677.605469 200.472656 678.648438 200.324219 C 679.691406 200.179688 680.726562 199.984375 681.75 199.738281 C 682.773438 199.496094 683.78125 199.199219 684.777344 198.859375 C 685.773438 198.515625 686.75 198.125 687.707031 197.6875 C 688.664062 197.25 689.597656 196.765625 690.507812 196.238281 C 691.417969 195.710938 692.300781 195.140625 693.15625 194.527344 C 694.015625 193.914062 694.835938 193.261719 695.628906 192.570312 C 696.421875 191.875 697.179688 191.148438 697.902344 190.378906 C 698.625 189.613281 699.304688 188.816406 699.949219 187.984375 C 700.59375 187.152344 701.199219 186.289062 701.757812 185.398438 C 702.320312 184.507812 702.835938 183.59375 703.308594 182.652344 C 703.78125 181.710938 704.210938 180.75 704.589844 179.769531 C 704.96875 178.785156 705.300781 177.789062 705.582031 176.773438 C 713.089844 150.539062 735.605469 133.53125 762.945312 133.53125 C 790.28125 133.53125 812.867188 150.539062 820.375 176.773438 C 820.65625 177.789062 820.988281 178.785156 821.367188 179.769531 C 821.75 180.75 822.175781 181.710938 822.648438 182.652344 C 823.121094 183.59375 823.636719 184.507812 824.199219 185.398438 C 824.757812 186.289062 825.363281 187.152344 826.007812 187.984375 C 826.652344 188.816406 827.332031 189.613281 828.054688 190.378906 C 828.777344 191.148438 829.535156 191.875 830.328125 192.570312 C 831.121094 193.261719 831.945312 193.914062 832.800781 194.527344 C 833.65625 195.140625 834.539062 195.710938 835.449219 196.238281 C 836.359375 196.765625 837.292969 197.25 838.25 197.6875 C 839.207031 198.125 840.183594 198.515625 841.179688 198.859375 C 842.175781 199.199219 843.183594 199.496094 844.207031 199.738281 C 845.230469 199.984375 846.265625 200.179688 847.308594 200.324219 C 848.351562 200.472656 849.398438 200.566406 850.449219 200.609375 C 851.5 200.652344 852.550781 200.648438 853.601562 200.589844 C 854.65625 200.53125 855.699219 200.421875 856.742188 200.265625 C 857.78125 200.105469 858.8125 199.894531 859.832031 199.636719 C 886.34375 192.957031 912.304688 203.976562 926.007812 227.664062 C 939.710938 251.351562 936.269531 279.308594 917.195312 299.003906 C 916.460938 299.757812 915.765625 300.546875 915.109375 301.367188 C 914.453125 302.1875 913.835938 303.039062 913.261719 303.921875 C 912.6875 304.800781 912.15625 305.707031 911.667969 306.640625 C 911.179688 307.570312 910.738281 308.523438 910.34375 309.5 C 909.949219 310.472656 909.601562 311.464844 909.300781 312.472656 C 909.003906 313.480469 908.75 314.5 908.550781 315.53125 C 908.347656 316.5625 908.195312 317.601562 908.097656 318.648438 C 907.996094 319.695312 907.945312 320.746094 907.945312 321.796875 C 907.945312 322.847656 907.996094 323.898438 908.097656 324.945312 C 908.195312 325.992188 908.347656 327.03125 908.550781 328.0625 C 908.75 329.09375 909 330.113281 909.300781 331.121094 C 909.601562 332.128906 909.949219 333.121094 910.34375 334.097656 C 910.738281 335.070312 911.179688 336.023438 911.667969 336.957031 C 912.15625 337.886719 912.6875 338.792969 913.261719 339.675781 C 913.835938 340.554688 914.453125 341.40625 915.109375 342.226562 C 915.765625 343.046875 916.460938 343.835938 917.195312 344.589844 C 936.269531 364.214844 939.710938 392.242188 926.007812 415.929688 C 912.304688 439.617188 886.414062 450.566406 859.832031 443.957031 C 858.8125 443.699219 857.785156 443.488281 856.742188 443.328125 C 855.703125 443.171875 854.660156 443.0625 853.609375 443.003906 C 852.558594 442.945312 851.507812 442.9375 850.457031 442.980469 C 849.40625 443.023438 848.363281 443.117188 847.320312 443.261719 C 846.277344 443.402344 845.246094 443.597656 844.222656 443.84375 C 843.199219 444.085938 842.191406 444.378906 841.195312 444.71875 C 840.203125 445.0625 839.226562 445.449219 838.269531 445.886719 C 837.3125 446.320312 836.378906 446.804688 835.46875 447.328125 C 834.558594 447.855469 833.675781 448.421875 832.816406 449.035156 C 831.960938 449.644531 831.136719 450.296875 830.347656 450.988281 C 829.554688 451.679688 828.796875 452.40625 828.074219 453.171875 C 827.351562 453.9375 826.667969 454.734375 826.023438 455.5625 C 825.375 456.394531 824.773438 457.253906 824.210938 458.140625 C 823.648438 459.03125 823.128906 459.945312 822.65625 460.882812 C 822.183594 461.820312 821.753906 462.78125 821.375 463.761719 C 820.992188 464.742188 820.660156 465.738281 820.375 466.75 C 812.867188 493.054688 790.28125 510.0625 762.945312 510.0625 C 735.605469 510.0625 713.089844 493.054688 705.582031 466.75 C 705.296875 465.738281 704.960938 464.742188 704.578125 463.765625 C 704.195312 462.785156 703.765625 461.828125 703.292969 460.890625 C 702.816406 459.953125 702.296875 459.039062 701.734375 458.152344 C 701.171875 457.265625 700.566406 456.40625 699.921875 455.578125 C 699.277344 454.75 698.589844 453.953125 697.867188 453.1875 C 697.144531 452.425781 696.390625 451.699219 695.597656 451.007812 C 694.804688 450.320312 693.980469 449.667969 693.125 449.058594 C 692.269531 448.445312 691.386719 447.878906 690.476562 447.351562 C 689.566406 446.828125 688.632812 446.347656 687.675781 445.910156 C 686.71875 445.472656 685.746094 445.085938 684.75 444.742188 C 683.757812 444.402344 682.75 444.109375 681.726562 443.863281 C 680.703125 443.621094 679.671875 443.425781 678.632812 443.28125 C 677.589844 443.132812 676.546875 443.039062 675.496094 442.996094 C 674.445312 442.949219 673.394531 442.957031 672.347656 443.015625 C 671.296875 443.070312 670.25 443.179688 669.210938 443.335938 C 668.171875 443.492188 667.144531 443.699219 666.125 443.957031 Z M 659.582031 417.859375 C 661.441406 417.390625 663.316406 417.015625 665.207031 416.730469 C 667.101562 416.445312 669.003906 416.25 670.914062 416.148438 C 672.828125 416.042969 674.738281 416.035156 676.652344 416.113281 C 678.566406 416.195312 680.46875 416.371094 682.367188 416.632812 C 684.261719 416.898438 686.140625 417.253906 688.003906 417.699219 C 689.867188 418.148438 691.703125 418.679688 693.511719 419.304688 C 695.324219 419.925781 697.097656 420.632812 698.839844 421.429688 C 700.582031 422.222656 702.285156 423.097656 703.941406 424.054688 C 705.597656 425.011719 707.207031 426.046875 708.765625 427.160156 C 710.324219 428.273438 711.824219 429.457031 713.269531 430.714844 C 714.714844 431.972656 716.09375 433.296875 717.410156 434.6875 C 718.726562 436.074219 719.972656 437.527344 721.152344 439.035156 C 722.328125 440.546875 723.429688 442.109375 724.457031 443.726562 C 725.480469 445.339844 726.429688 447.003906 727.292969 448.710938 C 728.160156 450.417969 728.941406 452.164062 729.640625 453.945312 C 730.339844 455.726562 730.949219 457.539062 731.472656 459.382812 C 736.433594 476.871094 751.03125 483.140625 762.945312 483.140625 C 774.855469 483.140625 789.457031 476.871094 794.484375 459.382812 C 794.996094 457.535156 795.59375 455.714844 796.285156 453.925781 C 796.972656 452.132812 797.746094 450.382812 798.605469 448.667969 C 799.464844 446.953125 800.40625 445.28125 801.425781 443.660156 C 802.449219 442.035156 803.546875 440.464844 804.71875 438.949219 C 805.894531 437.433594 807.140625 435.976562 808.453125 434.578125 C 809.769531 433.183594 811.152344 431.855469 812.59375 430.59375 C 814.039062 429.332031 815.542969 428.140625 817.101562 427.027344 C 818.664062 425.910156 820.273438 424.871094 821.933594 423.914062 C 823.59375 422.953125 825.296875 422.078125 827.042969 421.285156 C 828.789062 420.488281 830.570312 419.78125 832.386719 419.160156 C 834.199219 418.542969 836.042969 418.007812 837.90625 417.566406 C 839.773438 417.125 841.65625 416.773438 843.558594 416.515625 C 845.457031 416.257812 847.367188 416.089844 849.285156 416.019531 C 851.199219 415.945312 853.117188 415.964844 855.03125 416.078125 C 856.945312 416.1875 858.851562 416.394531 860.746094 416.691406 C 862.640625 416.988281 864.515625 417.378906 866.375 417.859375 C 899.21875 425.15625 920.707031 388.109375 897.84375 363.25 C 896.507812 361.878906 895.238281 360.449219 894.039062 358.953125 C 892.839844 357.460938 891.71875 355.914062 890.667969 354.3125 C 889.621094 352.707031 888.652344 351.058594 887.761719 349.363281 C 886.871094 347.667969 886.066406 345.933594 885.34375 344.160156 C 884.625 342.382812 883.988281 340.582031 883.441406 338.746094 C 882.894531 336.910156 882.4375 335.050781 882.070312 333.171875 C 881.703125 331.292969 881.425781 329.402344 881.242188 327.496094 C 881.054688 325.589844 880.964844 323.679688 880.964844 321.761719 C 880.964844 319.847656 881.054688 317.9375 881.242188 316.03125 C 881.425781 314.125 881.703125 312.230469 882.070312 310.351562 C 882.4375 308.472656 882.894531 306.617188 883.441406 304.78125 C 883.988281 302.945312 884.625 301.140625 885.34375 299.367188 C 886.066406 297.59375 886.871094 295.859375 887.761719 294.164062 C 888.652344 292.464844 889.621094 290.816406 890.667969 289.214844 C 891.71875 287.613281 892.839844 286.066406 894.039062 284.570312 C 895.238281 283.078125 896.507812 281.644531 897.84375 280.273438 C 910.515625 267.191406 908.65625 251.421875 902.734375 241.09375 C 896.808594 230.761719 884.003906 221.261719 866.375 225.734375 C 864.515625 226.210938 862.640625 226.597656 860.746094 226.890625 C 858.851562 227.183594 856.949219 227.386719 855.035156 227.496094 C 853.121094 227.605469 851.207031 227.621094 849.289062 227.542969 C 847.375 227.46875 845.46875 227.300781 843.570312 227.039062 C 841.671875 226.777344 839.789062 226.425781 837.921875 225.980469 C 836.058594 225.539062 834.21875 225.007812 832.40625 224.386719 C 830.59375 223.761719 828.8125 223.054688 827.066406 222.261719 C 825.324219 221.46875 823.621094 220.59375 821.960938 219.632812 C 820.300781 218.675781 818.691406 217.636719 817.132812 216.523438 C 815.574219 215.410156 814.070312 214.222656 812.625 212.960938 C 811.183594 211.699219 809.800781 210.375 808.484375 208.980469 C 807.167969 207.585938 805.925781 206.132812 804.75 204.617188 C 803.574219 203.101562 802.476562 201.535156 801.453125 199.914062 C 800.429688 198.292969 799.488281 196.625 798.625 194.914062 C 797.761719 193.199219 796.988281 191.449219 796.292969 189.664062 C 795.601562 187.875 795 186.058594 794.484375 184.210938 C 784.359375 152.125 741.597656 151.984375 731.472656 184.210938 C 730.953125 186.054688 730.347656 187.871094 729.652344 189.65625 C 728.957031 191.441406 728.175781 193.1875 727.3125 194.898438 C 726.449219 196.609375 725.503906 198.273438 724.480469 199.890625 C 723.457031 201.507812 722.355469 203.074219 721.179688 204.585938 C 720.003906 206.101562 718.757812 207.550781 717.441406 208.945312 C 716.125 210.335938 714.742188 211.660156 713.300781 212.917969 C 711.855469 214.179688 710.355469 215.363281 708.796875 216.476562 C 707.234375 217.589844 705.628906 218.628906 703.96875 219.585938 C 702.308594 220.542969 700.609375 221.417969 698.863281 222.214844 C 697.121094 223.007812 695.34375 223.714844 693.53125 224.335938 C 691.71875 224.960938 689.882812 225.492188 688.019531 225.9375 C 686.15625 226.382812 684.273438 226.734375 682.375 227 C 680.480469 227.261719 678.574219 227.433594 676.660156 227.511719 C 674.746094 227.589844 672.832031 227.578125 670.917969 227.472656 C 669.007812 227.363281 667.101562 227.167969 665.210938 226.878906 C 663.316406 226.585938 661.441406 226.207031 659.582031 225.734375 C 626.667969 218.4375 605.25 255.414062 628.042969 280.273438 C 629.386719 281.644531 630.660156 283.078125 631.859375 284.570312 C 633.0625 286.0625 634.191406 287.613281 635.242188 289.214844 C 636.296875 290.816406 637.269531 292.46875 638.160156 294.164062 C 639.054688 295.863281 639.863281 297.597656 640.585938 299.375 C 641.3125 301.148438 641.949219 302.957031 642.5 304.792969 C 643.046875 306.628906 643.507812 308.488281 643.875 310.371094 C 644.246094 312.253906 644.523438 314.148438 644.707031 316.058594 C 644.894531 317.964844 644.984375 319.878906 644.984375 321.796875 C 644.984375 323.714844 644.894531 325.628906 644.707031 327.535156 C 644.523438 329.445312 644.246094 331.339844 643.875 333.222656 C 643.507812 335.105469 643.046875 336.964844 642.5 338.800781 C 641.949219 340.636719 641.3125 342.445312 640.585938 344.21875 C 639.863281 345.996094 639.054688 347.730469 638.160156 349.429688 C 637.269531 351.125 636.296875 352.777344 635.242188 354.378906 C 634.191406 355.984375 633.0625 357.53125 631.859375 359.023438 C 630.660156 360.519531 629.386719 361.949219 628.042969 363.320312 C 615.375 376.402344 617.234375 392.105469 623.222656 402.433594 C 629.214844 412.761719 641.886719 422.335938 659.582031 417.859375 Z M 659.582031 417.859375 " fill-opacity="1" fill-rule="nonzero"/></g></svg>