<svg xmlns="http://www.w3.org/2000/svg" xmlns:xlink="http://www.w3.org/1999/xlink" width="2000" zoomAndPan="magnify" viewBox="0 0 1500 1499.999933" height="2000" preserveAspectRatio="xMidYMid meet" version="1.0"><defs><clipPath id="53a949d3b5"><path d="M 144.074219 42.046875 L 1350 42.046875 L 1350 1406 L 144.074219 1406 Z M 144.074219 42.046875 " clip-rule="nonzero"/></clipPath></defs><g clip-path="url(#53a949d3b5)"><path fill="#09732f" d="M 1327.234375 225.617188 L 756.542969 43.632812 C 753.46875 42.515625 750.300781 41.960938 747.03125 41.960938 C 743.761719 41.960938 740.59375 42.515625 737.519531 43.632812 L 166.828125 225.617188 C 165.234375 226.121094 163.691406 226.742188 162.195312 227.488281 C 160.699219 228.234375 159.273438 229.09375 157.914062 230.0625 C 156.554688 231.035156 155.277344 232.105469 154.089844 233.277344 C 152.898438 234.453125 151.808594 235.710938 150.816406 237.054688 C 149.824219 238.402344 148.945312 239.816406 148.179688 241.300781 C 147.410156 242.785156 146.765625 244.320312 146.238281 245.90625 C 145.714844 247.492188 145.316406 249.109375 145.050781 250.757812 C 144.78125 252.40625 144.640625 254.066406 144.636719 255.738281 L 144.636719 671.074219 C 144.636719 683.96875 144.636719 696.96875 144.636719 710.070312 C 145.628906 728.570312 147.378906 746.992188 149.890625 765.347656 C 152.398438 783.699219 155.660156 801.917969 159.671875 820 C 163.679688 838.085938 168.425781 855.976562 173.910156 873.667969 C 179.390625 891.363281 185.59375 908.800781 192.511719 925.984375 C 196.152344 934.671875 199.96875 943.28125 203.964844 951.8125 C 207.957031 960.339844 212.125 968.789062 216.464844 977.148438 C 220.804688 985.507812 225.3125 993.777344 229.988281 1001.953125 C 234.667969 1010.128906 239.511719 1018.207031 244.519531 1026.183594 C 249.527344 1034.160156 254.695312 1042.035156 260.027344 1049.800781 C 265.359375 1057.566406 270.84375 1065.21875 276.488281 1072.761719 C 282.132812 1080.304688 287.929688 1087.726562 293.875 1095.03125 C 299.824219 1102.335938 305.917969 1109.515625 312.160156 1116.570312 C 318.398438 1123.625 324.78125 1130.550781 331.308594 1137.34375 C 337.832031 1144.140625 344.492188 1150.796875 351.289062 1157.316406 C 358.089844 1163.839844 365.015625 1170.21875 372.074219 1176.457031 C 379.132812 1182.695312 386.316406 1188.785156 393.621094 1194.730469 C 400.929688 1200.671875 408.355469 1206.464844 415.902344 1212.105469 C 423.445312 1217.746094 431.101562 1223.230469 438.871094 1228.554688 C 446.640625 1233.882812 454.515625 1239.046875 462.496094 1244.050781 C 470.476562 1249.054688 478.554688 1253.894531 486.734375 1258.570312 L 730.226562 1400.925781 C 731.429688 1401.617188 732.667969 1402.230469 733.949219 1402.757812 C 735.226562 1403.289062 736.535156 1403.734375 737.875 1404.09375 C 739.214844 1404.449219 740.570312 1404.71875 741.941406 1404.902344 C 743.316406 1405.082031 744.695312 1405.171875 746.082031 1405.171875 C 747.464844 1405.171875 748.84375 1405.082031 750.21875 1404.902344 C 751.59375 1404.71875 752.949219 1404.449219 754.285156 1404.09375 C 755.625 1403.734375 756.933594 1403.289062 758.214844 1402.757812 C 759.492188 1402.230469 760.734375 1401.617188 761.933594 1400.925781 L 1005.429688 1258.570312 C 1013.605469 1253.894531 1021.6875 1249.054688 1029.667969 1244.050781 C 1037.648438 1239.046875 1045.519531 1233.882812 1053.289062 1228.554688 C 1061.058594 1223.230469 1068.714844 1217.746094 1076.261719 1212.105469 C 1083.804688 1206.464844 1091.230469 1200.671875 1098.539062 1194.730469 C 1105.847656 1188.785156 1113.027344 1182.695312 1120.085938 1176.457031 C 1127.144531 1170.21875 1134.074219 1163.839844 1140.871094 1157.316406 C 1147.667969 1150.796875 1154.328125 1144.140625 1160.851562 1137.34375 C 1167.378906 1130.550781 1173.761719 1123.625 1180.003906 1116.570312 C 1186.242188 1109.515625 1192.339844 1102.335938 1198.285156 1095.03125 C 1204.234375 1087.726562 1210.027344 1080.304688 1215.671875 1072.761719 C 1221.316406 1065.21875 1226.804688 1057.566406 1232.132812 1049.800781 C 1237.464844 1042.035156 1242.632812 1034.160156 1247.644531 1026.183594 C 1252.652344 1018.207031 1257.496094 1010.128906 1262.171875 1001.953125 C 1266.851562 993.777344 1271.359375 985.507812 1275.699219 977.148438 C 1280.039062 968.789062 1284.203125 960.339844 1288.199219 951.8125 C 1292.191406 943.28125 1296.007812 934.671875 1299.652344 925.984375 C 1306.730469 908.828125 1313.09375 891.410156 1318.738281 873.730469 C 1324.382812 856.050781 1329.289062 838.167969 1333.460938 820.082031 C 1337.628906 802 1341.046875 783.773438 1343.710938 765.40625 C 1346.378906 747.039062 1348.285156 728.59375 1349.429688 710.070312 C 1349.429688 696.964844 1349.429688 683.96875 1349.429688 671.074219 L 1349.429688 255.738281 C 1349.421875 254.066406 1349.285156 252.40625 1349.015625 250.757812 C 1348.746094 249.109375 1348.347656 247.492188 1347.824219 245.90625 C 1347.300781 244.320312 1346.652344 242.785156 1345.886719 241.300781 C 1345.117188 239.816406 1344.238281 238.402344 1343.246094 237.054688 C 1342.257812 235.710938 1341.164062 234.453125 1339.976562 233.277344 C 1338.785156 232.105469 1337.511719 231.035156 1336.152344 230.0625 C 1334.792969 229.09375 1333.363281 228.234375 1331.867188 227.488281 C 1330.375 226.742188 1328.828125 226.121094 1327.234375 225.617188 Z M 1286.019531 671.074219 C 1286.019531 683.121094 1286.019531 694.851562 1286.019531 706.902344 C 1284.242188 740.480469 1279.710938 773.6875 1272.421875 806.515625 C 1265.132812 839.34375 1255.1875 871.34375 1242.582031 902.519531 C 1235.949219 918.28125 1228.679688 933.746094 1220.78125 948.914062 C 1212.882812 964.082031 1204.378906 978.902344 1195.269531 993.375 C 1186.160156 1007.84375 1176.472656 1021.921875 1166.214844 1035.601562 C 1155.953125 1049.28125 1145.148438 1062.519531 1133.804688 1075.316406 C 1122.460938 1088.113281 1110.617188 1100.425781 1098.265625 1112.253906 C 1085.914062 1124.082031 1073.101562 1135.386719 1059.828125 1146.167969 C 1046.554688 1156.949219 1032.863281 1167.167969 1018.75 1176.828125 C 1004.640625 1186.492188 990.160156 1195.558594 975.308594 1204.035156 L 747.03125 1336.878906 L 519.707031 1204.035156 C 504.855469 1195.558594 490.375 1186.492188 476.261719 1176.828125 C 462.152344 1167.167969 448.460938 1156.949219 435.1875 1146.167969 C 421.910156 1135.386719 409.097656 1124.082031 396.75 1112.253906 C 384.398438 1100.425781 372.550781 1088.113281 361.207031 1075.316406 C 349.863281 1062.519531 339.0625 1049.28125 328.800781 1035.601562 C 318.539062 1021.921875 308.855469 1007.84375 299.746094 993.375 C 290.632812 978.902344 282.128906 964.082031 274.230469 948.914062 C 266.332031 933.746094 259.066406 918.28125 252.433594 902.519531 C 239.664062 871.375 229.558594 839.382812 222.109375 806.554688 C 214.660156 773.726562 209.972656 740.507812 208.046875 706.902344 C 208.046875 694.851562 208.046875 683.121094 208.046875 671.074219 L 208.046875 279.832031 L 747.03125 107.992188 L 1286.019531 279.832031 Z M 1286.019531 671.074219 " fill-opacity="1" fill-rule="nonzero"/></g><path fill="#09732f" d="M 484.195312 637.785156 C 483.460938 637.046875 482.6875 636.347656 481.882812 635.6875 C 481.074219 635.027344 480.238281 634.410156 479.371094 633.832031 C 478.503906 633.25 477.613281 632.71875 476.691406 632.226562 C 475.773438 631.734375 474.832031 631.292969 473.871094 630.894531 C 472.90625 630.496094 471.925781 630.144531 470.929688 629.84375 C 469.929688 629.539062 468.921875 629.289062 467.898438 629.085938 C 466.875 628.882812 465.847656 628.730469 464.808594 628.628906 C 463.773438 628.527344 462.734375 628.476562 461.691406 628.476562 C 460.648438 628.476562 459.609375 628.527344 458.574219 628.632812 C 457.535156 628.734375 456.507812 628.886719 455.484375 629.089844 C 454.460938 629.292969 453.453125 629.546875 452.457031 629.851562 C 451.457031 630.152344 450.476562 630.503906 449.515625 630.902344 C 448.550781 631.300781 447.613281 631.746094 446.691406 632.238281 C 445.773438 632.730469 444.882812 633.265625 444.015625 633.84375 C 443.148438 634.421875 442.3125 635.042969 441.507812 635.703125 C 440.699219 636.367188 439.929688 637.066406 439.191406 637.800781 C 438.457031 638.539062 437.757812 639.308594 437.097656 640.113281 C 436.433594 640.921875 435.816406 641.757812 435.234375 642.621094 C 434.65625 643.488281 434.121094 644.382812 433.628906 645.300781 C 433.136719 646.21875 432.695312 647.160156 432.292969 648.125 C 431.894531 649.085938 431.542969 650.066406 431.242188 651.0625 C 430.9375 652.0625 430.6875 653.070312 430.480469 654.09375 C 430.277344 655.113281 430.125 656.144531 430.023438 657.179688 C 429.921875 658.21875 429.871094 659.257812 429.867188 660.300781 C 429.867188 661.34375 429.917969 662.382812 430.019531 663.417969 C 430.121094 664.457031 430.273438 665.484375 430.476562 666.507812 C 430.679688 667.53125 430.933594 668.539062 431.234375 669.535156 C 431.535156 670.535156 431.886719 671.515625 432.285156 672.476562 C 432.683594 673.441406 433.128906 674.382812 433.617188 675.300781 C 434.109375 676.21875 434.644531 677.113281 435.222656 677.980469 C 435.800781 678.847656 436.417969 679.683594 437.082031 680.488281 C 437.742188 681.296875 438.4375 682.066406 439.175781 682.804688 L 640.503906 885.082031 C 641.972656 886.582031 643.570312 887.921875 645.304688 889.101562 C 647.039062 890.28125 648.871094 891.277344 650.804688 892.09375 C 652.738281 892.910156 654.730469 893.53125 656.785156 893.949219 C 658.839844 894.371094 660.914062 894.585938 663.011719 894.59375 C 665.109375 894.585938 667.1875 894.371094 669.242188 893.949219 C 671.296875 893.53125 673.289062 892.910156 675.222656 892.09375 C 677.152344 891.277344 678.988281 890.28125 680.71875 889.101562 C 682.453125 887.921875 684.054688 886.582031 685.523438 885.082031 L 1090.398438 480.210938 C 1091.039062 479.460938 1091.644531 478.683594 1092.214844 477.875 C 1092.785156 477.070312 1093.316406 476.238281 1093.808594 475.382812 C 1094.300781 474.527344 1094.75 473.648438 1095.160156 472.75 C 1095.570312 471.851562 1095.9375 470.9375 1096.261719 470.003906 C 1096.585938 469.070312 1096.867188 468.125 1097.101562 467.167969 C 1097.335938 466.210938 1097.527344 465.242188 1097.675781 464.265625 C 1097.820312 463.289062 1097.917969 462.308594 1097.972656 461.320312 C 1098.027344 460.335938 1098.035156 459.351562 1097.996094 458.363281 C 1097.960938 457.375 1097.875 456.394531 1097.746094 455.414062 C 1097.617188 454.4375 1097.441406 453.464844 1097.21875 452.503906 C 1097 451.542969 1096.734375 450.589844 1096.425781 449.652344 C 1096.117188 448.714844 1095.761719 447.796875 1095.367188 446.890625 C 1094.972656 445.984375 1094.535156 445.101562 1094.058594 444.238281 C 1093.582031 443.375 1093.0625 442.535156 1092.507812 441.71875 C 1091.949219 440.902344 1091.355469 440.117188 1090.726562 439.355469 C 1090.097656 438.59375 1089.433594 437.867188 1088.734375 437.167969 C 1088.035156 436.46875 1087.308594 435.804688 1086.546875 435.175781 C 1085.789062 434.546875 1085 433.953125 1084.183594 433.398438 C 1083.367188 432.839844 1082.527344 432.324219 1081.664062 431.84375 C 1080.800781 431.367188 1079.917969 430.929688 1079.011719 430.535156 C 1078.109375 430.140625 1077.1875 429.789062 1076.25 429.476562 C 1075.3125 429.167969 1074.363281 428.902344 1073.398438 428.683594 C 1072.4375 428.460938 1071.464844 428.289062 1070.488281 428.15625 C 1069.507812 428.027344 1068.527344 427.945312 1067.539062 427.90625 C 1066.554688 427.867188 1065.566406 427.875 1064.582031 427.929688 C 1063.59375 427.984375 1062.613281 428.082031 1061.636719 428.230469 C 1060.660156 428.375 1059.695312 428.566406 1058.734375 428.800781 C 1057.777344 429.039062 1056.832031 429.316406 1055.898438 429.640625 C 1054.964844 429.964844 1054.050781 430.332031 1053.152344 430.742188 C 1052.253906 431.152344 1051.378906 431.605469 1050.523438 432.097656 C 1049.664062 432.589844 1048.835938 433.117188 1048.027344 433.6875 C 1047.222656 434.257812 1046.445312 434.863281 1045.695312 435.503906 L 663.011719 818.820312 Z M 484.195312 637.785156 " fill-opacity="1" fill-rule="nonzero"/></svg>